<svg width="54" height="43" viewBox="0 0 54 43" fill="none" xmlns="http://www.w3.org/2000/svg">
<path d="M38.0908 21.817V23.7983H36.3363C34.844 23.7983 33.634 24.9871 33.634 26.4731V27.0675C33.634 28.5535 32.424 29.7423 30.9115 29.7423C29.4191 29.7423 28.2091 28.5535 28.2091 27.0675V26.4731C28.2091 24.9871 26.979 23.7983 25.4866 23.7983C23.9943 23.7983 22.7843 24.9871 22.7843 26.4731V27.0675C22.7843 28.5535 21.5541 29.7423 20.0618 29.7423C18.5694 29.7423 17.3393 28.5535 17.3393 27.0675V26.4731C17.3393 24.9871 16.1292 23.7983 14.6369 23.7983C13.1446 23.7983 11.9144 24.9871 11.9144 26.4731V27.0675C11.9144 28.5535 10.7044 29.7423 9.21205 29.7423C7.69955 29.7423 6.48953 28.5535 6.48953 27.0675V26.4335C6.48953 24.9673 5.29971 23.7785 3.82754 23.7587H2.23438V21.817C2.23438 19.0828 4.33171 16.7646 7.17522 16.091C7.73988 15.9523 8.32472 15.873 8.94988 15.873H31.3753C32.0005 15.873 32.5853 15.9523 33.15 16.091C35.9935 16.7646 38.0908 19.0828 38.0908 21.817Z" fill="#053E3E"/>
<path d="M33.1621 10.2663V16.0913C32.5974 15.9526 32.0126 15.8734 31.3874 15.8734H8.96217C8.337 15.8734 7.75217 15.9526 7.1875 16.0913V10.2663C7.1875 7.88868 9.3655 5.9668 12.0678 5.9668H28.2818C30.9841 5.9668 33.1621 7.88868 33.1621 10.2663Z" fill="#99CCCC"/>
<path d="M13.6188 3.09352V5.98625H12.0659C11.5416 5.98625 11.0576 6.04569 10.5938 6.16456V3.09352C10.5938 2.40006 11.2794 1.80566 12.1063 1.80566C12.9331 1.80566 13.6188 2.40006 13.6188 3.09352Z" fill="#008080"/>
<path d="M29.7359 2.65738V6.16431C29.2721 6.02562 28.7881 5.96618 28.2638 5.96618H26.7109V2.65738C26.7109 1.84504 27.3966 1.17139 28.2234 1.17139C29.0503 1.17139 29.7359 1.84504 29.7359 2.65738Z" fill="#008080"/>
<path d="M21.6813 1.64763V5.9669H18.6562V1.64763C18.6562 0.756037 19.3419 0.0229492 20.1688 0.0229492C20.9956 0.0229492 21.6813 0.756037 21.6813 1.64763Z" fill="#008080"/>
<path d="M38.8209 36.677H38.0949V23.7984H36.3404C34.8481 23.7984 33.6381 24.9872 33.6381 26.4732V27.0676C33.6381 28.5536 32.4281 29.7424 30.9155 29.7424C29.4232 29.7424 28.2132 28.5536 28.2132 27.0676V26.4732C28.2132 24.9872 26.983 23.7984 25.4907 23.7984C23.9984 23.7984 22.7884 24.9872 22.7884 26.4732V27.0676C22.7884 28.5536 21.5582 29.7424 20.0659 29.7424C18.5735 29.7424 17.3434 28.5536 17.3434 27.0676V26.4732C17.3434 24.9872 16.1334 23.7984 14.641 23.7984C13.1487 23.7984 11.9185 24.9872 11.9185 26.4732V27.0676C11.9185 28.5536 10.7085 29.7424 9.21618 29.7424C7.70368 29.7424 6.49368 28.5536 6.49368 27.0676V26.4336C6.49368 24.9674 5.30384 23.7786 3.83167 23.7588H2.2385V36.677H1.5125C0.685668 36.677 0 37.3506 0 38.163C0 38.9753 0.685668 39.649 1.5125 39.649H2.2385H38.0949H38.8209C39.6477 39.649 40.3334 38.9753 40.3334 38.163C40.3334 37.3506 39.6477 36.677 38.8209 36.677Z" fill="#99CCCC"/>
<rect x="31.7812" y="24.4678" width="19.5557" height="18.3334" fill="white"/>
<mask id="mask0_346_655" style="mask-type:luminance" maskUnits="userSpaceOnUse" x="30" y="19" width="24" height="24">
<path d="M50.9228 41.5277V28.6943H32.7422V41.5277H50.9228Z" fill="black" stroke="white" stroke-width="2" stroke-linecap="round" stroke-linejoin="round"/>
<path d="M41.8325 41.5277V28.6943M50.9228 41.5277H32.7422" stroke="white" stroke-width="2" stroke-linecap="round" stroke-linejoin="round"/>
<path d="M31.1406 24.4165H52.5296V28.6943H31.1406V24.4165Z" fill="black" stroke="white" stroke-width="2" stroke-linejoin="round"/>
<path d="M37.5547 20.1387L41.8325 24.4165L46.1103 20.1387" stroke="white" stroke-width="2" stroke-linecap="round" stroke-linejoin="round"/>
</mask>
<g mask="url(#mask0_346_655)">
<path d="M29 18H54.6668V43.6668H29V18Z" fill="black"/>
</g>
</svg>
