<svg width="44" height="44" viewBox="0 0 44 44" fill="none" xmlns="http://www.w3.org/2000/svg">
<path d="M37.677 5.15626C36.9026 4.5574 35.9377 4.24671 34.9527 4.27905C33.3768 4.35305 31.8439 4.80874 30.4906 5.60556V4.27905C30.5746 3.2402 30.2408 2.21039 29.561 1.41047C28.8811 0.61054 27.9093 0.104191 26.8539 0L12.3504 0C11.295 0.104191 10.3232 0.61054 9.6433 1.41047C8.96344 2.21039 8.62969 3.2402 8.71362 4.27905V5.60556C7.36031 4.80874 5.82745 4.35305 4.25151 4.27905C3.26654 4.24671 2.30162 4.5574 1.52721 5.15626C-1.26025 7.40276 -0.127841 13.2865 4.07512 18.3143C6.29092 21.2489 9.4925 23.318 13.1126 24.1553C13.7888 24.5502 14.5132 24.8593 15.2685 25.0752V29.9534H15.2467C14.8439 29.9516 14.4487 30.061 14.1061 30.269C13.7635 30.477 13.4871 30.7754 13.3086 31.1301L11.1091 35.4092C10.9402 35.7331 10.8594 36.0944 10.8747 36.4581C10.8899 36.8218 11.0007 37.1753 11.1962 37.4845C11.3897 37.7968 11.6615 38.0552 11.9855 38.235C12.3096 38.4148 12.6751 38.5099 13.0472 38.5115H26.1352C26.5064 38.5104 26.8712 38.4161 27.1949 38.2375C27.5186 38.0589 27.7904 37.802 27.9846 37.4912C28.1788 37.1803 28.2889 36.8259 28.3044 36.4615C28.32 36.0971 28.2404 35.7349 28.0734 35.4092L25.8957 31.1301C25.7168 30.7847 25.4464 30.4931 25.113 30.286C24.7795 30.0789 24.3954 29.964 24.0011 29.9534V25.0539C24.7349 24.8454 25.4378 24.5433 26.0917 24.1553C29.711 23.3176 32.9117 21.2484 35.127 18.3143C39.3299 13.2865 40.4623 7.40276 37.677 5.15626ZM7.45273 15.5971C5.61469 13.6788 4.51964 11.1879 4.35822 8.55811C5.99955 8.88028 7.51166 9.66022 8.71362 10.8046V14.9767C8.71362 15.2976 8.7354 15.6185 8.75718 15.9395C8.77895 16.1962 8.80073 16.4316 8.84429 16.6883C8.8446 16.8403 8.8666 16.9916 8.90962 17.1376C8.39201 16.6542 7.90545 16.1398 7.45273 15.5971ZM31.7515 15.5971C31.2981 16.1398 30.8108 16.6543 30.2925 17.1376L30.3578 16.6883C30.4013 16.4316 30.4231 16.1962 30.4449 15.9395C30.4667 15.6185 30.4906 15.2976 30.4906 14.9767V10.8046C31.6926 9.66022 33.2047 8.88028 34.846 8.55811C34.6846 11.1879 33.5896 13.6788 31.7515 15.5971Z" fill="#008080"/>
<path d="M23.9766 31.354L29.5399 37.2912L27.58 40.9195L25.9467 38.9404L21.3717 37.4038L23.9766 31.354Z" fill="white"/>
<path d="M39.3125 31.354L33.7492 37.2912L35.7091 40.9195L37.3424 38.9404L41.9173 37.4038L39.3125 31.354Z" fill="white"/>
<path d="M31.4961 21.5977C35.2449 21.5977 38.2432 24.6598 38.2432 28.3857C38.2431 32.1116 35.2449 35.1738 31.4961 35.1738C27.7475 35.1736 24.7501 32.1115 24.75 28.3857C24.75 24.6599 27.7475 21.5979 31.4961 21.5977Z" stroke="white" stroke-width="5"/>
<path fill-rule="evenodd" clip-rule="evenodd" d="M37.7067 37.9507C36.6166 38.992 35.7311 40.5342 35.7311 40.5342L33.7305 37.1768C35.8255 36.6751 37.6367 35.4861 38.8997 33.8683L41.0876 37.5389C41.0876 37.5389 39.2529 37.5188 37.7067 37.9507ZM31.5003 35.8127C27.3344 35.8127 23.9582 32.4856 23.9582 28.3831C23.9582 24.2805 27.3344 20.9534 31.5003 20.9534C35.6662 20.9534 39.0424 24.2805 39.0424 28.3831C39.0424 32.4856 35.6662 35.8127 31.5003 35.8127ZM27.2695 40.5342C27.2695 40.5342 26.384 38.992 25.2939 37.9507C23.7477 37.5188 21.913 37.5389 21.913 37.5389L24.1009 33.8683C25.3639 35.4861 27.1751 36.6751 29.2701 37.1768L27.2695 40.5342ZM39.8208 32.4196C40.427 31.224 40.7773 29.8851 40.7773 28.4639C40.7773 23.5019 36.6235 19.4795 31.5003 19.4795C26.3771 19.4795 22.2233 23.5019 22.2233 28.4639C22.2233 29.8851 22.5736 31.224 23.1798 32.4196L19.4141 38.7353C19.4141 38.7353 22.2179 38.4505 24.6405 38.9403C26.2562 40.7081 27.4484 43.2282 27.4484 43.2282L30.9107 37.4202C31.107 37.4321 31.301 37.4491 31.5003 37.4491C31.6996 37.4491 31.8936 37.4321 32.0899 37.4202L35.5522 43.2282C35.5522 43.2282 36.7444 41.0379 38.3601 39.2701C40.7827 38.7803 43.5865 38.7353 43.5865 38.7353L39.8208 32.4196ZM31.5003 32.096C29.4151 32.096 27.7255 30.4351 27.7255 28.3853C27.7255 26.3355 29.4151 24.6745 31.5003 24.6745C33.5855 24.6745 35.2751 26.3355 35.2751 28.3853C35.2751 30.4351 33.5855 32.096 31.5003 32.096ZM31.5003 23.1902C28.5816 23.1902 26.2155 25.5161 26.2155 28.3853C26.2155 31.2544 28.5816 33.5803 31.5003 33.5803C34.419 33.5803 36.7851 31.2544 36.7851 28.3853C36.7851 25.5161 34.419 23.1902 31.5003 23.1902Z" fill="black"/>
</svg>
