<svg width="41" height="46" viewBox="0 0 41 46" fill="none" xmlns="http://www.w3.org/2000/svg">
<path d="M20.2305 0.115234L0 17.2601H5.00714V37.7574H35.05V17.2601H40.0571L20.2305 0.115234ZM27.5393 22.9993H21.6976V32.9102L21.6592 32.8381H17.6744L17.525 32.9102V22.9993H12.5179V19.7197H17.525V12.3407H21.6976V19.7197H27.5393V22.9993Z" fill="#008080"/>
<path d="M32.259 30.0517V39.1291C32.259 40.734 32.9184 42.2733 34.0922 43.4082C35.2659 44.5431 36.8579 45.1806 38.5179 45.1806V30.0517C38.5179 28.8548 38.1508 27.6847 37.4631 26.6896C36.7753 25.6944 35.7978 24.9187 34.6541 24.4607C33.5105 24.0026 32.252 23.8828 31.0379 24.1163C29.8238 24.3498 28.7085 24.9261 27.8332 25.7725C26.9579 26.6188 26.3618 27.6971 26.1203 28.871C25.8788 30.0449 26.0027 31.2617 26.4764 32.3675C26.9502 33.4733 27.7524 34.4184 28.7817 35.0834C29.811 35.7483 31.0211 36.1032 32.259 36.1032" fill="white"/>
<path d="M32.259 30.0517V39.1291C32.259 40.734 32.9184 42.2733 34.0922 43.4082C35.2659 44.5431 36.8579 45.1806 38.5179 45.1806V30.0517C38.5179 28.8548 38.1508 27.6847 37.4631 26.6896C36.7753 25.6944 35.7978 24.9187 34.6541 24.4607C33.5105 24.0026 32.252 23.8828 31.0379 24.1163C29.8238 24.3498 28.7085 24.9261 27.8332 25.7725C26.9579 26.6188 26.3618 27.6971 26.1203 28.871C25.8788 30.0449 26.0027 31.2617 26.4764 32.3675C26.9502 33.4733 27.7524 34.4184 28.7817 35.0834C29.811 35.7483 31.0211 36.1032 32.259 36.1032" stroke="black" stroke-width="1.2" stroke-linecap="round" stroke-linejoin="round"/>
</svg>
