<svg width="101" height="37" viewBox="0 0 101 37" fill="none" xmlns="http://www.w3.org/2000/svg">
<path d="M47.108 15.7388L42.152 27.8948H40.232L35.276 15.7388H37.016C37.192 15.7388 37.336 15.7828 37.448 15.8708C37.56 15.9588 37.636 16.0628 37.676 16.1828L40.76 24.0068C40.856 24.3028 40.94 24.5908 41.012 24.8708C41.084 25.1508 41.152 25.4308 41.216 25.7108C41.28 25.4308 41.348 25.1508 41.42 24.8708C41.492 24.5908 41.58 24.3028 41.684 24.0068L44.804 16.1828C44.852 16.0548 44.932 15.9508 45.044 15.8708C45.156 15.7828 45.288 15.7388 45.44 15.7388H47.108ZM51.323 15.7388V27.8948H49.187V15.7388H51.323ZM51.779 11.9228C51.779 12.1308 51.735 12.3268 51.647 12.5108C51.567 12.6868 51.455 12.8468 51.311 12.9908C51.175 13.1268 51.011 13.2348 50.819 13.3148C50.635 13.3948 50.439 13.4348 50.231 13.4348C50.023 13.4348 49.827 13.3948 49.643 13.3148C49.467 13.2348 49.311 13.1268 49.175 12.9908C49.039 12.8468 48.931 12.6868 48.851 12.5108C48.771 12.3268 48.731 12.1308 48.731 11.9228C48.731 11.7148 48.771 11.5188 48.851 11.3348C48.931 11.1428 49.039 10.9788 49.175 10.8428C49.311 10.6988 49.467 10.5868 49.643 10.5068C49.827 10.4268 50.023 10.3868 50.231 10.3868C50.439 10.3868 50.635 10.4268 50.819 10.5068C51.011 10.5868 51.175 10.6988 51.311 10.8428C51.455 10.9788 51.567 11.1428 51.647 11.3348C51.735 11.5188 51.779 11.7148 51.779 11.9228ZM56.8486 17.5028C57.1126 17.2068 57.3926 16.9388 57.6886 16.6988C57.9846 16.4588 58.2966 16.2548 58.6246 16.0868C58.9606 15.9108 59.3126 15.7788 59.6806 15.6908C60.0566 15.5948 60.4606 15.5468 60.8926 15.5468C61.5566 15.5468 62.1406 15.6588 62.6446 15.8828C63.1566 16.0988 63.5806 16.4108 63.9166 16.8188C64.2606 17.2188 64.5206 17.7028 64.6966 18.2708C64.8726 18.8388 64.9606 19.4668 64.9606 20.1548V27.8948H62.8126V20.1548C62.8126 19.2348 62.6006 18.5228 62.1766 18.0188C61.7606 17.5068 61.1246 17.2508 60.2686 17.2508C59.6366 17.2508 59.0446 17.4028 58.4926 17.7068C57.9486 18.0108 57.4446 18.4228 56.9806 18.9428V27.8948H54.8326V15.7388H56.1166C56.4206 15.7388 56.6086 15.8868 56.6806 16.1828L56.8486 17.5028ZM71.7834 28.0868C70.8234 28.0868 70.0834 27.8188 69.5634 27.2828C69.0514 26.7468 68.7954 25.9748 68.7954 24.9668V17.5268H67.3314C67.2034 17.5268 67.0954 17.4908 67.0074 17.4188C66.9194 17.3388 66.8754 17.2188 66.8754 17.0588V16.2068L68.8674 15.9548L69.3594 12.1988C69.3834 12.0788 69.4354 11.9828 69.5154 11.9108C69.6034 11.8308 69.7154 11.7908 69.8514 11.7908H70.9314V15.9788H74.4474V17.5268H70.9314V24.8228C70.9314 25.3348 71.0554 25.7148 71.3034 25.9628C71.5514 26.2108 71.8714 26.3348 72.2634 26.3348C72.4874 26.3348 72.6794 26.3068 72.8394 26.2508C73.0074 26.1868 73.1514 26.1188 73.2714 26.0468C73.3914 25.9748 73.4914 25.9108 73.5714 25.8548C73.6594 25.7908 73.7354 25.7588 73.7994 25.7588C73.9114 25.7588 74.0114 25.8268 74.0994 25.9628L74.7234 26.9828C74.3554 27.3268 73.9114 27.5988 73.3914 27.7988C72.8714 27.9908 72.3354 28.0868 71.7834 28.0868ZM78.8609 10.2188V27.8948H76.7249V10.2188H78.8609ZM84.5808 15.7388V27.8948H82.4448V15.7388H84.5808ZM85.0368 11.9228C85.0368 12.1308 84.9928 12.3268 84.9048 12.5108C84.8248 12.6868 84.7128 12.8468 84.5688 12.9908C84.4328 13.1268 84.2688 13.2348 84.0768 13.3148C83.8928 13.3948 83.6968 13.4348 83.4888 13.4348C83.2808 13.4348 83.0848 13.3948 82.9008 13.3148C82.7248 13.2348 82.5688 13.1268 82.4328 12.9908C82.2968 12.8468 82.1888 12.6868 82.1088 12.5108C82.0288 12.3268 81.9888 12.1308 81.9888 11.9228C81.9888 11.7148 82.0288 11.5188 82.1088 11.3348C82.1888 11.1428 82.2968 10.9788 82.4328 10.8428C82.5688 10.6988 82.7248 10.5868 82.9008 10.5068C83.0848 10.4268 83.2808 10.3868 83.4888 10.3868C83.6968 10.3868 83.8928 10.4268 84.0768 10.5068C84.2688 10.5868 84.4328 10.6988 84.5688 10.8428C84.7128 10.9788 84.8248 11.1428 84.9048 11.3348C84.9928 11.5188 85.0368 11.7148 85.0368 11.9228Z" fill="black"/>
<path d="M30.0833 4.86834H28V1.54175H25.5V4.86834H12V1.54175L9.5 1.54175V4.86834H7.91667C7.07681 4.86834 6.27136 4.94993 5.6775 5.52817C5.08363 6.10641 5 6.97165 5 7.7894V29.2917C5 30.1095 5.08363 30.8938 5.6775 31.472C6.27136 32.0502 7.07681 32.1315 7.91667 32.1315H30.0833C31.8408 32.1315 33 31.003 33 29.2917V7.7894C33 6.97165 32.9164 6.10641 32.3225 5.52817C31.7286 4.94993 30.9232 4.86834 30.0833 4.86834ZM30.0833 29.2917H7.91667V11.6841H30.0833V29.2917ZM30.0833 9.73676L7.91667 9.73677V7.70842H30.0833V9.73676Z" fill="black"/>
<path d="M21.7824 19.1456C21.7824 18.8016 21.7344 18.4736 21.6384 18.1616C21.5504 17.8496 21.4064 17.5736 21.2064 17.3336C21.0064 17.0936 20.7544 16.9056 20.4504 16.7696C20.1464 16.6256 19.7824 16.5536 19.3584 16.5536C18.5664 16.5536 17.9464 16.7776 17.4984 17.2256C17.0504 17.6736 16.7584 18.3136 16.6224 19.1456H21.7824ZM16.5744 21.1136C16.6784 22.2736 17.0064 23.1216 17.5584 23.6576C18.1184 24.1936 18.8464 24.4616 19.7424 24.4616C20.1984 24.4616 20.5904 24.4096 20.9184 24.3056C21.2544 24.1936 21.5464 24.0736 21.7944 23.9456C22.0504 23.8096 22.2784 23.6896 22.4784 23.5856C22.6864 23.4736 22.8904 23.4176 23.0904 23.4176C23.3464 23.4176 23.5464 23.5136 23.6904 23.7056L24.6504 24.9056C24.2984 25.3136 23.9104 25.6536 23.4864 25.9256C23.0624 26.1896 22.6224 26.4016 22.1664 26.5616C21.7104 26.7136 21.2504 26.8176 20.7864 26.8736C20.3224 26.9376 19.8744 26.9696 19.4424 26.9696C18.5784 26.9696 17.7704 26.8296 17.0184 26.5496C16.2744 26.2616 15.6224 25.8416 15.0624 25.2896C14.5104 24.7296 14.0744 24.0376 13.7544 23.2136C13.4344 22.3896 13.2744 21.4336 13.2744 20.3456C13.2744 19.5056 13.4104 18.7136 13.6824 17.9696C13.9624 17.2256 14.3624 16.5776 14.8824 16.0256C15.4024 15.4736 16.0344 15.0376 16.7784 14.7176C17.5224 14.3896 18.3624 14.2256 19.2984 14.2256C20.0904 14.2256 20.8184 14.3535 21.4824 14.6095C22.1544 14.8576 22.7304 15.2216 23.2104 15.7016C23.6984 16.1816 24.0744 16.7736 24.3384 17.4776C24.6104 18.1736 24.7464 18.9696 24.7464 19.8656C24.7464 20.1136 24.7344 20.3176 24.7104 20.4776C24.6864 20.6376 24.6464 20.7656 24.5904 20.8616C24.5344 20.9576 24.4584 21.0256 24.3624 21.0656C24.2664 21.0976 24.1424 21.1136 23.9904 21.1136H16.5744Z" fill="#008080"/>
</svg>
