<svg width="44" height="44" viewBox="0 0 44 44" fill="none" xmlns="http://www.w3.org/2000/svg">
<path d="M14.6255 18.1074H3.48223C1.53201 18.1074 0 16.575 0 14.6252V3.48217C0 1.53198 1.53236 0 3.48223 0H14.6255C16.5757 0 18.1077 1.53233 18.1077 3.48217V14.6252C18.1077 16.5754 16.5757 18.1074 14.6255 18.1074ZM5.57109 13.9288H12.5356C13.3018 13.9288 13.9284 13.3019 13.9284 12.5361L13.9287 5.57134C13.9287 4.80516 13.3018 4.17862 12.536 4.17862L5.57109 4.17827C4.80489 4.17827 4.17834 4.80518 4.17834 5.571V12.5354C4.17799 13.302 4.80491 13.9288 5.57109 13.9288Z" fill="#008080"/>
<path d="M35.5161 18.1074H24.3729C22.4226 18.1074 20.8906 16.575 20.8906 14.6252V3.48217C20.8906 1.53198 22.423 0 24.3729 0H35.5161C37.4663 0 38.9983 1.53233 38.9983 3.48217V14.6252C38.9983 16.5754 37.4663 18.1074 35.5161 18.1074ZM26.4617 13.9288H33.4263C34.1925 13.9288 34.819 13.3019 34.819 12.5361L34.8194 5.57134C34.8194 4.80516 34.1925 4.17862 33.4266 4.17862L26.4617 4.17827C25.6955 4.17827 25.069 4.80518 25.069 5.571V12.5354C25.069 13.302 25.6955 13.9288 26.4617 13.9288Z" fill="#053E3E"/>
<path d="M14.6255 39.0014H3.48223C1.53201 39.0014 0 37.4691 0 35.5193V24.3762C0 22.426 1.53236 20.894 3.48223 20.894H14.6255C16.5757 20.894 18.1077 22.4264 18.1077 24.3762V35.5193C18.1077 37.4694 16.5757 39.0014 14.6255 39.0014ZM5.57109 34.8229H12.5356C13.3018 34.8229 13.9284 34.196 13.9284 33.4302L13.9287 26.4654C13.9287 25.6992 13.3018 25.0727 12.536 25.0727H5.57109C4.80489 25.0727 4.17834 25.6996 4.17834 26.4654V33.4298C4.17799 34.196 4.80491 34.8229 5.57109 34.8229Z" fill="#99CCCC"/>
<path d="M35.5161 39.0014H24.3729C22.4226 39.0014 20.8906 37.4691 20.8906 35.5193V24.3762C20.8906 22.426 22.423 20.894 24.3729 20.894H35.5161C37.4663 20.894 38.9983 22.4264 38.9983 24.3762V35.5193C38.9983 37.4694 37.4663 39.0014 35.5161 39.0014ZM26.4617 34.8229H33.4263C34.1925 34.8229 34.819 34.196 34.819 33.4302L34.8194 26.4654C34.8194 25.6992 34.1925 25.0727 33.4266 25.0727H26.4617C25.6955 25.0727 25.069 25.6996 25.069 26.4654V33.4298C25.069 34.196 25.6955 34.8229 26.4617 34.8229Z" fill="#008080"/>
<circle cx="35" cy="35" r="9" fill="white"/>
<path fill-rule="evenodd" clip-rule="evenodd" d="M35 26C30.0324 26 26 30.0328 26 35C26 39.9672 30.0328 44 35 44C39.9672 44 44 39.9672 44 35C44 30.0324 39.9672 26 35 26ZM35 27.2C39.3049 27.2 42.7999 30.6951 42.7999 35.0003C42.7999 39.3052 39.3048 42.8002 35 42.8002C30.6951 42.8002 27.1997 39.3051 27.1997 35.0003C27.1997 30.6954 30.6948 27.2 35 27.2ZM29.9002 33.4999C30.7282 33.4999 31.4001 34.1721 31.4001 35C31.4001 35.828 30.7281 36.5 29.9002 36.5C29.0721 36.5 28.4 35.828 28.4 35C28.4 34.1721 29.0722 33.4999 29.9002 33.4999ZM35 33.4999C35.828 33.4999 36.5 34.1721 36.5 35C36.5 35.828 35.828 36.5 35 36.5C34.172 36.5 33.4999 35.828 33.4999 35C33.4999 34.1721 34.172 33.4999 35 33.4999ZM40.0998 33.4999C40.9279 33.4999 41.5998 34.1721 41.5998 35C41.5998 35.828 40.9278 36.5 40.0998 36.5C39.2718 36.5 38.5997 35.828 38.5997 35C38.5997 34.1721 39.2719 33.4999 40.0998 33.4999Z" fill="black"/>
</svg>
