<svg width="51" height="44" viewBox="0 0 51 44" fill="none" xmlns="http://www.w3.org/2000/svg">
<path d="M11.8577 1.39095H12.5456C12.9308 1.39095 13.2335 1.702 13.2335 2.06714C13.2335 2.4458 12.9308 2.74333 12.5456 2.74333H11.8577V5.55221C12.0751 5.61983 12.281 5.72036 12.4754 5.85379L20.9804 11.8232C21.12 11.908 21.2404 12.0201 21.3341 12.1524C21.4279 12.2848 21.493 12.4347 21.5255 12.5927C21.558 12.7508 21.5571 12.9138 21.523 13.0716C21.4889 13.2293 21.4222 13.3785 21.3271 13.51C21.2319 13.6414 21.1104 13.7522 20.9699 13.8356C20.8295 13.919 20.6731 13.9732 20.5106 13.9949C20.348 14.0165 20.1826 14.0051 20.0246 13.9614C19.8667 13.9177 19.7195 13.8427 19.5923 13.7409L18.7365 13.1431V17.6195H37.0288C37.6988 17.6195 38.3123 18.0103 38.5641 18.6175L39.3043 20.3959C39.3618 20.5386 39.3828 20.6929 39.3653 20.8454C39.3479 20.9979 39.2925 21.1439 39.2042 21.2704C39.1158 21.3969 38.9972 21.5001 38.8587 21.571C38.7202 21.6418 38.5661 21.6781 38.41 21.6766H37.9973V36.5527H3.6031V13.1512L2.76113 13.7422C1.97694 14.3102 0.86532 13.7422 0.851562 12.782C0.851562 12.4047 1.04417 12.0396 1.3606 11.8232L9.86284 5.85379C10.0529 5.72369 10.2615 5.62206 10.4819 5.55221V2.74333H9.79405C9.40884 2.74333 9.10617 2.4458 9.10617 2.06714C9.10617 1.68847 9.40884 1.39095 9.79405 1.39095H10.4819V0.714763C10.4819 0.336097 10.7846 0.0385742 11.1698 0.0385742C11.555 0.0385742 11.8577 0.336097 11.8577 0.714763V1.39095ZM11.1698 20.3242C13.067 20.3242 14.6092 18.8217 14.6092 16.9433C14.6092 15.0784 13.067 13.5623 11.1698 13.5623C10.2576 13.5623 9.3828 13.9185 8.73778 14.5526C8.09277 15.1866 7.7304 16.0466 7.7304 16.9433C7.7304 18.8082 9.27264 20.3242 11.1698 20.3242ZM22.8776 32.4956H27.0049V26.4099C27.0049 25.2874 26.0831 24.3814 24.9413 24.3814C23.7994 24.3814 22.8776 25.2874 22.8776 26.4099V32.4956ZM15.985 35.2004V30.467C15.985 27.857 13.8251 25.7337 11.1698 25.7337C8.51459 25.7337 6.35463 27.857 6.35463 30.467V35.2004H15.985ZM29.7564 26.4099V32.4956H33.8837V26.4099C33.8837 25.2874 32.962 24.3814 31.8201 24.3814C30.6782 24.3814 29.7564 25.2874 29.7564 26.4099Z" fill="#008080"/>
<path d="M33.8882 9.22105V9.27514C33.8882 10.0325 33.6543 10.7492 33.2553 11.3308C32.2648 12.6831 31.0128 13.8597 29.582 14.7793C29.4307 14.874 29.2518 14.9146 29.073 14.9146C28.8942 14.9146 28.7153 14.874 28.564 14.7793C27.1332 13.8597 25.8812 12.6831 24.8907 11.3308C24.4917 10.7492 24.2578 10.0325 24.2578 9.27514V9.22105C24.2716 7.86867 25.3722 6.80029 26.7342 6.80029C26.9268 6.80029 27.1332 6.82734 27.312 6.88144C27.9999 7.01667 28.5777 7.44943 28.9079 8.03096C28.9492 8.09857 29.0042 8.12562 29.073 8.12562C29.1418 8.12562 29.1968 8.09857 29.2381 8.03096C29.5683 7.44943 30.1461 7.01667 30.834 6.88144C31.0128 6.82734 31.2192 6.80029 31.4118 6.80029C32.7738 6.80029 33.8744 7.86867 33.8882 9.22105Z" fill="#008080"/>
<path d="M33.9688 26.0029H37.1865L35.5776 30.1882L33.9688 26.0029Z" fill="white"/>
<path d="M34.6094 26.3198L35.5068 26.8301L34.6094 27.3405V26.3198Z" fill="black"/>
<path d="M36.3877 26.3198L35.5078 26.8301L36.3877 27.3405V26.3198Z" fill="black"/>
<path d="M35.5117 25.6503C36.4933 25.6503 37.289 24.8541 37.289 23.872C37.289 22.8899 36.4933 22.0938 35.5117 22.0938C34.5301 22.0938 33.7344 22.8899 33.7344 23.872C33.7344 24.8541 34.5301 25.6503 35.5117 25.6503Z" fill="black"/>
<path d="M45.5039 26.5306C46.4854 26.5306 47.2812 25.7345 47.2812 24.7524C47.2812 23.7703 46.4854 22.9741 45.5039 22.9741C44.5223 22.9741 43.7266 23.7703 43.7266 24.7524C43.7266 25.7345 44.5223 26.5306 45.5039 26.5306Z" fill="black"/>
<path d="M50.9393 32.9569C50.9393 32.9569 50.9393 32.9393 50.9217 32.9393L49.3028 28.4848C49.2324 28.2912 49.1268 28.0975 49.0037 27.939C49.3908 27.1644 49.4084 26.196 48.9333 25.3861L47.8247 23.467C47.3495 22.6395 46.4697 22.1289 45.5194 22.1289C44.5692 22.1289 43.6894 22.6395 43.2142 23.4494L42.1056 25.3861C41.6305 26.196 41.6481 27.1468 42.0352 27.939C41.9121 28.0975 41.8065 28.2912 41.7361 28.4848L40.8562 30.9321L39.642 27.5869C39.3429 26.7418 38.5686 26.1256 37.7416 26.1256H36.8441C36.8441 26.1256 35.4715 29.9814 35.5067 30.0166C35.5419 30.0518 34.1694 26.1256 34.1694 26.1256H33.2719C32.0401 26.1256 31.0547 27.1291 31.0547 28.344V33.7844C31.0547 34.2069 31.4066 34.5591 31.829 34.5591C32.2513 34.5591 32.6032 34.2069 32.6032 33.7844V28.7842C32.6032 28.6609 32.7088 28.5553 32.832 28.5553C32.9552 28.5553 33.0607 28.6609 33.0607 28.7842V42.2707C33.0607 42.9398 33.5535 43.468 34.1694 43.468C34.7853 43.468 35.278 42.9222 35.278 42.2707V34.5767C35.278 34.4534 35.3836 34.3478 35.5067 34.3478C35.6299 34.3478 35.7355 34.4534 35.7355 34.5767V42.2707C35.7355 42.9398 36.2282 43.468 36.8441 43.468C37.46 43.468 37.9527 42.9222 37.9527 42.2707V28.7842C37.9527 28.6609 38.0583 28.5553 38.1815 28.5553C38.2695 28.5553 38.3575 28.6081 38.3926 28.6961L40.1172 33.4323C40.2579 33.8372 40.7155 34.0485 41.1202 33.9076C41.3314 33.8372 41.4897 33.6611 41.5777 33.4675L43.0559 29.418C43.0911 29.33 43.179 29.2595 43.2846 29.2771H43.355C43.4254 30.2983 43.531 31.2843 43.6894 32.2526C42.0352 34.8232 41.0498 38.7318 40.9794 43.0102V43.468H50.0947V43.0102C50.0243 38.7142 49.0389 34.8056 47.3847 32.2526C47.5431 31.3019 47.6663 30.2983 47.7191 29.2771H47.7895C47.895 29.2771 47.983 29.33 48.0182 29.418L49.4964 33.4675C49.6372 33.8724 50.0947 34.0837 50.4994 33.9252C50.8689 33.802 51.0801 33.3618 50.9393 32.9569ZM49.6196 43.0278H41.4193C41.4897 38.6262 42.5455 34.7527 44.1469 32.3583C43.8829 30.8617 43.7245 29.2067 43.7245 27.4637H44.1645L45.4491 29.8934C45.4491 30.0166 46.8744 27.4637 46.8744 27.4637H47.3143C47.2967 29.2067 47.156 30.8617 46.892 32.3583C48.4933 34.7527 49.5668 38.6262 49.6196 43.0278ZM48.6869 27.5693C48.2822 27.2172 47.7543 27.0059 47.2088 27.0059H43.8301C43.2846 27.0059 42.7567 27.1996 42.352 27.5693C42.088 26.9531 42.1232 26.2312 42.4752 25.5974L43.5838 23.6783C43.9709 23.0092 44.6924 22.5691 45.5019 22.5691C46.3289 22.5691 47.0504 23.0092 47.4199 23.6783L48.5285 25.5974C48.9157 26.2312 48.9333 26.9531 48.6869 27.5693Z" fill="black"/>
</svg>
